<svg width="21" height="21" viewBox="0 0 21 21" fill="none" xmlns="http://www.w3.org/2000/svg">
    <path
        d="M9.25 4.84848C9.25 7.09043 7.36913 8.94697 5 8.94697C2.63087 8.94697 0.75 7.09043 0.75 4.84848C0.75 2.60654 2.63087 0.75 5 0.75C7.36913 0.75 9.25 2.60654 9.25 4.84848Z"
        stroke="black" stroke-width="1.5" />
    <path
        d="M9.25 15.8485C9.25 18.0904 7.36913 19.947 5 19.947C2.63087 19.947 0.75 18.0904 0.75 15.8485C0.75 13.6065 2.63087 11.75 5 11.75C7.36913 11.75 9.25 13.6065 9.25 15.8485Z"
        stroke="black" stroke-width="1.5" />
    <path
        d="M20.25 15.8485C20.25 18.0904 18.3691 19.947 16 19.947C13.6309 19.947 11.75 18.0904 11.75 15.8485C11.75 13.6065 13.6309 11.75 16 11.75C18.3691 11.75 20.25 13.6065 20.25 15.8485Z"
        stroke="black" stroke-width="1.5" />
    <path
        d="M20.25 4.84848C20.25 7.09043 18.3691 8.94697 16 8.94697C13.6309 8.94697 11.75 7.09043 11.75 4.84848C11.75 2.60654 13.6309 0.75 16 0.75C18.3691 0.75 20.25 2.60654 20.25 4.84848Z"
        stroke="black" stroke-width="1.5" />
    <line x1="9" y1="3.9" x2="11" y2="3.9" stroke="black" stroke-width="0.2" />
    <line x1="9" y1="15.9" x2="11" y2="15.9" stroke="black" stroke-width="0.2" />
    <line x1="15.9234" y1="12.0008" x2="15.9" y2="9.00078" stroke="black" stroke-width="0.2" />
    <line x1="4.92344" y1="12.0008" x2="4.9" y2="9.00078" stroke="black" stroke-width="0.2" />
</svg>